<svg xmlns="http://www.w3.org/2000/svg" viewBox="0 0 1200 700" role="img" aria-label="Refactoring continu Affluences">
  <rect width="1200" height="700" rx="48" fill="#0b1220"/>
  <rect x="60" y="60" width="1080" height="580" rx="30" fill="#111827" stroke="#243044"/>
  <rect x="100" y="110" width="1000" height="42" rx="12" fill="#172033"/>
  <rect x="100" y="180" width="1000" height="96" rx="18" fill="#0f172a" stroke="#243044"/>
  <rect x="100" y="300" width="1000" height="96" rx="18" fill="#0f172a" stroke="#243044"/>
  <rect x="100" y="420" width="1000" height="96" rx="18" fill="#0f172a" stroke="#243044"/>
  <rect x="130" y="208" width="180" height="14" rx="7" fill="#2dd4bf"/>
  <rect x="130" y="238" width="510" height="12" rx="6" fill="#334155"/>
  <rect x="130" y="328" width="210" height="14" rx="7" fill="#f59e0b"/>
  <rect x="130" y="358" width="640" height="12" rx="6" fill="#334155"/>
  <rect x="130" y="448" width="240" height="14" rx="7" fill="#60a5fa"/>
  <rect x="130" y="478" width="720" height="12" rx="6" fill="#334155"/>
  <text x="132" y="132" fill="#cbd5e1" font-family="Arial, sans-serif" font-size="18">small fix → cleaner file → safer feature work</text>
</svg>
