<svg xmlns="http://www.w3.org/2000/svg" viewBox="0 0 1200 700" role="img" aria-label="Page d'analyse Affluences screenshot">
  <rect width="1200" height="700" rx="48" fill="#0b1220"/>
  <rect x="56" y="56" width="1088" height="588" rx="32" fill="#111827" stroke="#1f2937"/>
  <rect x="92" y="92" width="1016" height="56" rx="14" fill="#172033"/>
  <rect x="92" y="176" width="316" height="448" rx="24" fill="#0f172a" stroke="#243044"/>
  <rect x="432" y="176" width="676" height="180" rx="24" fill="#0f172a" stroke="#243044"/>
  <rect x="432" y="380" width="326" height="244" rx="24" fill="#0f172a" stroke="#243044"/>
  <rect x="782" y="380" width="326" height="244" rx="24" fill="#0f172a" stroke="#243044"/>
  <rect x="124" y="214" width="120" height="18" rx="9" fill="#2dd4bf"/>
  <rect x="124" y="252" width="220" height="12" rx="6" fill="#334155"/>
  <rect x="124" y="286" width="180" height="12" rx="6" fill="#334155"/>
  <rect x="124" y="320" width="200" height="12" rx="6" fill="#334155"/>
  <rect x="124" y="354" width="150" height="12" rx="6" fill="#334155"/>
  <rect x="124" y="388" width="210" height="12" rx="6" fill="#334155"/>
  <rect x="468" y="216" width="240" height="22" rx="11" fill="#2dd4bf"/>
  <rect x="468" y="258" width="470" height="18" rx="9" fill="#243044"/>
  <rect x="468" y="292" width="380" height="18" rx="9" fill="#243044"/>
  <rect x="468" y="416" width="236" height="16" rx="8" fill="#334155"/>
  <rect x="468" y="450" width="180" height="16" rx="8" fill="#334155"/>
  <rect x="468" y="484" width="206" height="16" rx="8" fill="#334155"/>
  <rect x="818" y="416" width="236" height="16" rx="8" fill="#334155"/>
  <rect x="818" y="450" width="180" height="16" rx="8" fill="#334155"/>
  <rect x="818" y="484" width="206" height="16" rx="8" fill="#334155"/>
  <circle cx="982" cy="218" r="26" fill="#2dd4bf" opacity="0.8"/>
  <text x="96" y="630" fill="#94a3b8" font-family="Arial, sans-serif" font-size="22">Affluences · page d'analyse</text>
</svg>
