<svg xmlns="http://www.w3.org/2000/svg" viewBox="0 0 1200 700" role="img" aria-label="Template de monorepo">
  <rect width="1200" height="700" rx="48" fill="#0f172a"/>
  <rect x="60" y="60" width="1080" height="580" rx="30" fill="#111827" stroke="#263449"/>
  <rect x="92" y="92" width="190" height="516" rx="24" fill="#0b1220"/>
  <rect x="310" y="92" width="364" height="238" rx="24" fill="#0b1220"/>
  <rect x="706" y="92" width="362" height="238" rx="24" fill="#0b1220"/>
  <rect x="310" y="358" width="758" height="250" rx="24" fill="#0b1220"/>
  <rect x="124" y="138" width="120" height="18" rx="9" fill="#2dd4bf"/>
  <rect x="124" y="178" width="84" height="12" rx="6" fill="#334155"/>
  <rect x="124" y="210" width="108" height="12" rx="6" fill="#334155"/>
  <rect x="124" y="242" width="96" height="12" rx="6" fill="#334155"/>
  <rect x="348" y="134" width="250" height="20" rx="10" fill="#2dd4bf"/>
  <rect x="348" y="180" width="284" height="14" rx="7" fill="#334155"/>
  <rect x="348" y="210" width="220" height="14" rx="7" fill="#334155"/>
  <rect x="744" y="134" width="260" height="20" rx="10" fill="#60a5fa"/>
  <rect x="744" y="180" width="286" height="14" rx="7" fill="#334155"/>
  <rect x="744" y="210" width="220" height="14" rx="7" fill="#334155"/>
  <rect x="348" y="400" width="620" height="18" rx="9" fill="#334155"/>
  <rect x="348" y="438" width="560" height="18" rx="9" fill="#334155"/>
  <rect x="348" y="476" width="510" height="18" rx="9" fill="#334155"/>
  <text x="96" y="630" fill="#94a3b8" font-family="Arial, sans-serif" font-size="22">Monorepo · API · UI · tooling</text>
</svg>
