<svg xmlns="http://www.w3.org/2000/svg" viewBox="0 0 512 512" role="img" aria-labelledby="title desc">
  <title id="title">Portrait stylisé de Mathis Sebille</title>
  <desc id="desc">Illustration de profil utilisée comme photo de présentation.</desc>
  <defs>
    <linearGradient id="bg" x1="0" y1="0" x2="1" y2="1">
      <stop offset="0%" stop-color="#0f172a" />
      <stop offset="55%" stop-color="#1e293b" />
      <stop offset="100%" stop-color="#0f766e" />
    </linearGradient>
    <linearGradient id="skin" x1="0" y1="0" x2="1" y2="1">
      <stop offset="0%" stop-color="#f8d0b3" />
      <stop offset="100%" stop-color="#e3a57c" />
    </linearGradient>
  </defs>
  <rect width="512" height="512" rx="96" fill="url(#bg)" />
  <circle cx="256" cy="206" r="98" fill="url(#skin)" />
  <path d="M154 398c18-68 64-108 102-108s84 40 102 108" fill="#dbeafe" opacity="0.18" />
  <path d="M164 186c8-63 45-104 92-104 36 0 68 20 88 53 18 1 33 10 43 27 14 24 15 62 4 95-18-28-30-41-49-50-23-11-54-16-86-16-41 0-79 13-92 49-8-16-11-33-10-54z" fill="#111827" opacity="0.88" />
  <path d="M183 148c30-35 70-50 113-47 28 2 55 12 72 27-21 0-38 7-49 21-20-8-46-12-73-12-24 0-46 4-63 11z" fill="#0f172a" />
  <circle cx="219" cy="205" r="10" fill="#1f2937" />
  <circle cx="293" cy="205" r="10" fill="#1f2937" />
  <path d="M217 242c13 15 34 23 39 23s26-8 39-23" fill="none" stroke="#1f2937" stroke-width="12" stroke-linecap="round" />
  <path d="M160 414c25-31 62-48 96-48s71 17 96 48" fill="none" stroke="#93c5fd" stroke-width="18" stroke-linecap="round" opacity="0.65" />
</svg>